<svg width="36" height="46" viewBox="0 0 36 46" fill="none" xmlns="http://www.w3.org/2000/svg">
<g opacity="0.8">
<path d="M27.6115 36.2157C30.1455 36.2157 32.2427 38.2705 32.2427 40.7534C32.2427 43.2363 30.1455 45.2911 27.6115 45.2911C25.0776 45.2911 22.9805 43.2363 22.9805 40.7534C22.9805 38.1849 25.0776 36.2157 27.6115 36.2157ZM27.6115 43.8356C29.3591 43.8356 30.7572 42.4657 30.7572 40.7534C30.7572 39.0411 29.3591 37.6712 27.6115 37.6712C25.864 37.6712 24.4659 39.0411 24.4659 40.7534C24.4659 42.4657 25.864 43.8356 27.6115 43.8356Z" fill="#2DCFC1"/>
<path d="M10.9224 20.2911C13.4564 20.2911 15.5535 22.3459 15.5535 24.8288C15.5535 27.3116 13.4564 29.3664 10.9224 29.3664C8.38838 29.3664 6.29126 27.3116 6.29126 24.8288C6.29126 22.2603 8.38838 20.2911 10.9224 20.2911ZM10.9224 27.911C12.67 27.911 14.068 26.5411 14.068 24.8288C14.068 23.1164 12.67 21.7466 10.9224 21.7466C9.17479 21.7466 7.77672 23.1164 7.77672 24.8288C7.77672 26.5411 9.17479 27.911 10.9224 27.911Z" fill="#FFAA01"/>
<path d="M5.24298 5.47956C5.67988 5.47956 5.94201 5.82202 5.94201 6.16449V9.3323C5.94201 9.76038 5.5925 10.0172 5.24298 10.0172C4.80609 10.0172 4.54393 9.67477 4.54393 9.3323V6.16449C4.54393 5.82202 4.80609 5.47956 5.24298 5.47956Z" fill="#2DCFC1"/>
<path d="M5.24298 0C5.67988 0 5.94201 0.342469 5.94201 0.684935V3.85274C5.94201 4.28082 5.5925 4.53768 5.24298 4.53768C4.80609 4.53768 4.54393 4.19521 4.54393 3.85274V0.684935C4.54393 0.342469 4.80609 0 5.24298 0Z" fill="#2DCFC1"/>
<path d="M0.699023 4.28088H3.58253C4.01942 4.28088 4.28158 4.62335 4.28158 4.96582C4.28158 5.30828 3.93204 5.65075 3.58253 5.65075H0.699023C0.262127 5.65075 0 5.30828 0 4.96582C0 4.62335 0.349506 4.28088 0.699023 4.28088Z" fill="#2DCFC1"/>
<path d="M6.81528 4.28085H9.69879C10.1357 4.28085 10.3978 4.62332 10.3978 4.96579C10.3978 5.30825 10.0483 5.65072 9.69879 5.65072H6.81528C6.37839 5.65072 6.11626 5.30825 6.11626 4.96579C6.11626 4.62332 6.46577 4.28085 6.81528 4.28085Z" fill="#2DCFC1"/>
<path d="M30.8446 23.1166C31.2815 23.1166 31.5436 23.4591 31.5436 23.8015V26.9693C31.5436 27.3974 31.1941 27.6543 30.8446 27.6543C30.4077 27.6543 30.1455 27.3118 30.1455 26.9693V23.8015C30.0582 23.3735 30.4077 23.1166 30.8446 23.1166Z" fill="#FFAA01"/>
<path d="M30.8443 17.637C31.2812 17.637 31.5433 17.9795 31.5433 18.322V21.4898C31.5433 21.9179 31.1938 22.1747 30.8443 22.1747C30.4074 22.1747 30.1453 21.8323 30.1453 21.4898V18.322C30.0579 17.8939 30.4074 17.637 30.8443 17.637Z" fill="#FFAA01"/>
<path d="M26.3013 21.9179H29.1849C29.6218 21.9179 29.8839 22.2604 29.8839 22.6029C29.8839 23.0309 29.5344 23.2878 29.1849 23.2878H26.3013C25.8644 23.2878 25.6023 22.9453 25.6023 22.6029C25.6023 22.2604 25.9518 21.9179 26.3013 21.9179Z" fill="#FFAA01"/>
<path d="M32.4173 21.9179H35.3009C35.7378 21.9179 35.9999 22.2604 35.9999 22.6028C35.9999 23.0309 35.6504 23.2878 35.3009 23.2878H32.4173C31.9805 23.2878 31.7183 22.9453 31.7183 22.6028C31.7183 22.2604 32.0678 21.9179 32.4173 21.9179Z" fill="#FFAA01"/>
</g>
</svg>
