<svg width="619" height="581" viewBox="0 0 619 581" fill="none" xmlns="http://www.w3.org/2000/svg">
<g clip-path="url(#clip0_293_79)">
<path d="M576.435 581H26.516C19.4859 580.992 12.7461 578.196 7.77507 573.225C2.80407 568.254 0.00789883 561.514 0 554.484V317.784C0.00799402 310.754 2.80418 304.014 7.77516 299.043C12.7461 294.072 19.486 291.276 26.516 291.268H576.435C583.465 291.276 590.204 294.072 595.175 299.043C600.146 304.014 602.943 310.754 602.951 317.784V554.484C602.943 561.514 600.147 568.254 595.176 573.225C590.204 578.196 583.465 580.992 576.435 581Z" fill="white"/>
<path d="M576.435 581H26.516C19.4859 580.992 12.7461 578.196 7.77507 573.225C2.80407 568.254 0.00789883 561.514 0 554.484V317.784C0.00799666 310.754 2.80418 304.014 7.77516 299.043C12.7461 294.072 19.486 291.276 26.516 291.268C190.566 273.371 377.361 276.613 576.435 291.268C583.465 291.276 590.204 294.072 595.175 299.043C600.146 304.014 602.943 310.754 602.951 317.784C623.559 386.415 624.365 483.967 602.951 554.484C602.943 561.514 600.147 568.254 595.176 573.225C590.204 578.196 583.465 580.992 576.435 581ZM26.516 293.573C23.3366 293.573 20.1885 294.2 17.2511 295.416C14.3138 296.633 11.6449 298.416 9.39674 300.664C7.14861 302.912 5.36529 305.581 4.14861 308.519C2.93194 311.456 2.30572 314.604 2.30572 317.784V554.484C2.30572 560.905 4.85644 567.063 9.39674 571.603C13.937 576.144 20.095 578.694 26.516 578.694H576.435C582.856 578.694 589.014 576.144 593.554 571.603C598.094 567.063 600.645 560.905 600.645 554.484V447.773C600.645 406.877 584.399 367.656 555.481 338.737C526.563 309.819 487.341 293.573 446.445 293.573L26.516 293.573Z" fill="#E6E6E6"/>
<path d="M404.698 326.345H335.591C335.212 326.347 334.836 326.273 334.486 326.129C334.135 325.985 333.817 325.773 333.548 325.506C333.279 325.238 333.066 324.92 332.921 324.57C332.776 324.22 332.701 323.845 332.701 323.466C332.701 323.087 332.776 322.711 332.921 322.361C333.066 322.011 333.279 321.693 333.548 321.426C333.817 321.158 334.135 320.946 334.486 320.802C334.836 320.658 335.212 320.585 335.591 320.586H404.698C405.077 320.585 405.453 320.658 405.804 320.802C406.154 320.946 406.473 321.158 406.741 321.426C407.01 321.693 407.223 322.011 407.368 322.361C407.514 322.711 407.589 323.087 407.589 323.466C407.589 323.845 407.514 324.22 407.368 324.57C407.223 324.92 407.01 325.238 406.741 325.506C406.473 325.773 406.154 325.985 405.804 326.129C405.453 326.273 405.077 326.347 404.698 326.345Z" fill="#6C63FF"/>
<path d="M344.632 415.444H275.524C275.145 415.445 274.77 415.372 274.419 415.228C274.069 415.084 273.75 414.872 273.481 414.604C273.213 414.337 273 414.019 272.854 413.669C272.709 413.319 272.634 412.944 272.634 412.564C272.634 412.185 272.709 411.81 272.854 411.46C273 411.11 273.213 410.792 273.481 410.525C273.75 410.257 274.069 410.045 274.419 409.901C274.77 409.757 275.145 409.684 275.524 409.685H344.632C345.011 409.684 345.386 409.757 345.737 409.901C346.088 410.045 346.406 410.257 346.675 410.525C346.943 410.792 347.156 411.11 347.302 411.46C347.447 411.81 347.522 412.185 347.522 412.564C347.522 412.944 347.447 413.319 347.302 413.669C347.156 414.019 346.943 414.337 346.675 414.604C346.406 414.872 346.088 415.084 345.737 415.228C345.386 415.372 345.011 415.445 344.632 415.444Z" fill="#6C63FF"/>
<path d="M399.21 409.512C396.316 405.4 393.913 400.964 392.051 396.294C391.995 396.153 391.898 396.032 391.772 395.947C391.647 395.862 391.498 395.816 391.347 395.816C391.195 395.816 391.047 395.862 390.921 395.947C390.796 396.032 390.699 396.153 390.643 396.294C388.781 400.964 386.379 405.4 383.485 409.512C383.389 409.644 383.337 409.804 383.339 409.967C383.34 410.131 383.394 410.29 383.492 410.42C383.591 410.551 383.729 410.647 383.886 410.693C384.043 410.739 384.211 410.733 384.364 410.677L390.346 408.513V445.538H392.348V408.513L398.331 410.677C398.485 410.734 398.652 410.739 398.809 410.693C398.966 410.647 399.104 410.551 399.203 410.421C399.302 410.29 399.355 410.131 399.357 409.967C399.358 409.804 399.307 409.644 399.21 409.512Z" fill="#3F3D56"/>
<path d="M335.989 344.236C335.933 344.095 335.836 343.974 335.71 343.889C335.585 343.804 335.436 343.759 335.285 343.759C335.133 343.759 334.985 343.804 334.859 343.889C334.734 343.974 334.636 344.095 334.58 344.236C332.719 348.906 330.317 353.343 327.423 357.454C327.327 357.586 327.275 357.746 327.276 357.909C327.278 358.073 327.332 358.232 327.43 358.363C327.529 358.493 327.667 358.589 327.824 358.635C327.981 358.681 328.149 358.676 328.302 358.619L334.283 356.455V393.48H336.286V356.455L342.269 358.619C342.422 358.676 342.59 358.681 342.747 358.635C342.904 358.589 343.042 358.494 343.141 358.363C343.239 358.232 343.293 358.073 343.295 357.91C343.296 357.746 343.244 357.586 343.148 357.454C340.254 353.343 337.851 348.906 335.989 344.236Z" fill="#3F3D56"/>
<path d="M279.927 427.328C279.871 427.187 279.773 427.066 279.648 426.981C279.522 426.896 279.374 426.851 279.222 426.851C279.071 426.851 278.923 426.896 278.797 426.981C278.671 427.067 278.574 427.187 278.518 427.328C276.657 431.999 274.255 436.435 271.361 440.546C271.264 440.678 271.213 440.838 271.214 441.002C271.216 441.165 271.27 441.324 271.368 441.455C271.467 441.586 271.605 441.681 271.762 441.727C271.919 441.773 272.086 441.768 272.24 441.711L278.221 439.547V476.572H280.223V439.547L286.207 441.711C286.36 441.768 286.528 441.774 286.685 441.727C286.842 441.681 286.98 441.586 287.079 441.455C287.177 441.324 287.231 441.166 287.232 441.002C287.234 440.838 287.182 440.679 287.086 440.546C284.192 436.435 281.789 431.998 279.927 427.328Z" fill="#3F3D56"/>
<path d="M525.495 457.551V441.534C493.537 418.025 475.82 417.778 465.429 422.512C452.239 428.522 447.927 443.888 442.969 457.551H525.495Z" fill="#F2F2F2"/>
<path d="M268.341 519.62C261.414 514.208 258.412 499.575 244.183 495.593C235.885 493.272 228.887 496.009 217.153 500.599C201.691 506.648 194.878 513.508 185.727 519.62H268.341Z" fill="#F2F2F2"/>
<path d="M299.154 491.589C289.882 503.335 285.355 515.034 279.447 519.62H525.495V491.589H299.154Z" fill="#F2F2F2"/>
<path d="M441.855 460.555C438.069 470.454 433.54 478.967 424.383 481.578C408.264 486.175 401.033 465.863 370.323 462.557C367.192 462.22 340.011 459.671 316.263 475.571C310.821 479.232 305.898 483.609 301.626 488.586H525.495V460.555H441.855Z" fill="#F2F2F2"/>
<path d="M342.292 479.576C350.586 479.576 357.309 472.853 357.309 464.559C357.309 456.266 350.586 449.542 342.292 449.542C333.999 449.542 327.276 456.266 327.276 464.559C327.276 472.853 333.999 479.576 342.292 479.576Z" fill="#6C63FF"/>
<path d="M159.493 563.788L173.774 563.787L180.566 508.704L159.49 508.706L159.493 563.788Z" fill="#FFB6B6"/>
<path d="M158.99 578.686L202.905 578.684V578.129C202.905 573.595 201.104 569.248 197.898 566.043C194.693 562.837 190.345 561.036 185.812 561.036L177.79 554.951L162.823 561.037L158.99 561.037L158.99 578.686Z" fill="#2F2E41"/>
<path d="M167.528 506.094L155.919 514.411L118.313 473.594L135.446 461.319L167.528 506.094Z" fill="#FFB6B6"/>
<path d="M176.614 517.911L140.917 543.488L140.594 543.037C137.954 539.352 136.885 534.769 137.624 530.297C138.362 525.824 140.847 521.828 144.531 519.187L144.532 519.187L147.508 509.568L163.219 505.798L166.335 503.565L176.614 517.911Z" fill="#2F2E41"/>
<path d="M113.983 250.442C113.983 250.442 25.4462 345.707 40.7598 373.632C56.0735 401.557 129.94 497.043 129.94 497.043L150.19 473.791C133.171 433.407 114.858 398.112 93.4935 374.821L155.4 329.089C155.4 329.089 159.955 404.793 156.208 416.687C152.46 428.582 146.154 422.276 152.46 428.582C158.765 434.887 161.946 436.045 158.554 439.97C155.162 443.895 152.722 533.316 152.722 533.316H181.853C181.853 533.316 209.037 368.576 207.322 362.547C205.607 356.517 206.591 359.282 206.549 351.594C206.508 343.906 218.939 280.925 218.939 280.925L113.983 250.442Z" fill="#2F2E41"/>
<path d="M174.079 72.1039L146.154 73.9055L127.83 97.3744L97.34 120.608L116.685 179.484C116.685 179.484 115.732 209.572 112.477 213.353C109.221 217.134 103.816 212.63 109.221 220.737C112.516 225.874 114.382 231.797 114.626 237.896C114.626 237.896 83.8279 263.525 94.8081 270.281C105.788 277.037 127.967 259.471 139.312 269.831C150.658 280.19 226.027 301.05 226.326 286.496C226.624 271.941 207.506 158.29 207.506 158.29L211.913 103.632L186.69 86.5168L174.079 72.1039Z" fill="#6C63FF"/>
<path d="M129.878 301.75L120.413 273.256L103.381 276.392L114.46 306.162C113.787 307.906 113.613 309.804 113.959 311.641C114.304 313.479 115.156 315.184 116.417 316.564C117.679 317.944 119.3 318.945 121.099 319.454C122.899 319.964 124.804 319.961 126.602 319.446C128.399 318.932 130.018 317.926 131.275 316.543C132.533 315.159 133.379 313.452 133.72 311.613C134.06 309.774 133.881 307.877 133.203 306.135C132.524 304.393 131.373 302.874 129.878 301.75Z" fill="#FFB6B6"/>
<path d="M104.691 116.023L104.242 116.21C100.066 117.951 96.3773 120.684 93.4953 124.173C90.6133 127.661 88.6249 131.799 87.7023 136.229C85.2882 147.784 82.9128 164.497 84.7908 180.146C88.1075 207.786 81.3107 219.947 85.733 228.792C90.1553 237.637 91.2609 234.32 90.1553 240.953C89.0497 247.587 83.5218 242.059 89.0497 250.904C94.5776 259.748 97.8944 257.537 95.6832 261.959C93.4721 266.382 90.1553 266.382 94.5776 271.91C99 277.438 99 279.649 100.106 281.86C101.211 284.071 104.528 300.655 104.528 300.655C104.528 300.655 122.217 295.127 132.167 297.338C132.167 297.338 123.323 281.86 125.534 278.543C127.745 275.226 131.062 274.121 127.745 270.804C124.428 267.487 118.9 268.593 124.428 265.276C129.956 261.959 125.436 194.613 125.436 194.613L104.691 116.023Z" fill="#6C63FF"/>
<path d="M251.274 268.692L244.813 239.37L261.048 233.342L266.776 264.586C268.248 265.739 269.369 267.28 270.013 269.036C270.657 270.791 270.798 272.692 270.422 274.523C270.045 276.354 269.165 278.045 267.88 279.403C266.596 280.762 264.957 281.735 263.15 282.214C261.342 282.693 259.437 282.658 257.648 282.113C255.86 281.568 254.258 280.536 253.025 279.131C251.791 277.726 250.973 276.005 250.664 274.16C250.354 272.316 250.566 270.423 251.274 268.692Z" fill="#FFB6B6"/>
<path d="M185.538 91.6531L186.019 91.5839C190.498 90.9412 195.066 91.3998 199.328 92.9201C203.589 94.4404 207.416 96.9765 210.477 100.309C218.468 108.998 229.067 122.137 235.467 136.541C246.772 161.98 251.101 173.558 251.831 183.419C252.562 193.281 249.914 190.998 254.26 196.13C258.607 201.262 260.524 193.683 260.305 204.11C260.086 214.538 256.105 214.337 260.269 217.004C264.433 219.67 267.282 217.971 266.314 224.984C265.346 231.997 266.478 233.896 266.661 236.361C266.844 238.827 272.487 254.77 272.487 254.77C272.487 254.77 254.462 259.08 247.048 266.074C247.048 266.074 246.719 248.25 243.121 246.534C239.524 244.817 236.109 245.566 237.259 241.019C238.41 236.471 243.724 234.59 237.277 234.572C230.831 234.554 192.095 151.375 192.095 151.375L185.538 91.6531Z" fill="#6C63FF"/>
<path d="M158.508 69.2094C174.744 69.2094 187.906 56.0478 187.906 39.8121C187.906 23.5765 174.744 10.4149 158.508 10.4149C142.273 10.4149 129.111 23.5765 129.111 39.8121C129.111 56.0478 142.273 69.2094 158.508 69.2094Z" fill="#FFB6B6"/>
<path d="M192.774 30.2599C189.754 31.6367 187.798 41.6084 185.425 39.2902C183.051 36.972 183.21 33.9552 180.01 33.0996C177.426 32.4058 174.645 33.1987 172.289 34.4494C171.868 34.67 171.46 34.91 171.062 35.1486C170.8 34.9732 170.538 34.8082 170.258 34.656C168.15 33.5278 165.689 33.251 163.383 33.8827C165.205 34.493 166.79 35.6608 167.912 37.2208C167.123 37.7494 166.324 38.2794 165.507 38.749C158.679 42.689 148.964 34.1216 141.778 30.903C146.279 39.3503 144.063 42.8488 140.154 51.5851L140.019 52.0826C140.241 49.893 133.466 48.2612 133.858 51.3435C134.545 54.4652 135.632 57.4851 137.092 60.3284C129.536 51.5917 124.373 40.9003 125.462 29.8713C125.699 27.5544 125.628 25.1099 126.823 23.099C128.019 21.0984 130.513 19.6946 132.72 20.4575C132.533 16.9402 133.302 13.438 134.947 10.3232C136.591 7.20842 139.049 4.59747 142.059 2.76793C145.069 0.938398 148.518 -0.0413377 152.04 -0.0671187C155.562 -0.0928997 159.026 0.836235 162.062 2.62152C164.883 4.27701 167.239 6.61841 169.824 8.63806C172.41 10.6577 175.391 12.4182 178.67 12.5849C180.75 12.6852 183.014 12.1774 184.801 13.2547C186.871 14.5048 187.225 17.1221 187.536 19.6406C185.69 19.8226 183.939 20.551 182.509 21.7327C184.419 21.5378 186.343 21.9504 188.005 22.9116C188.037 22.9258 188.067 22.943 188.095 22.9627C189.19 27.125 189.078 28.0477 192.774 30.2599Z" fill="#2F2E41"/>
<path d="M458.758 386.412H389.651C389.272 386.413 388.896 386.34 388.546 386.196C388.195 386.052 387.876 385.84 387.608 385.572C387.339 385.305 387.126 384.987 386.981 384.637C386.836 384.287 386.761 383.911 386.761 383.532C386.761 383.153 386.836 382.778 386.981 382.428C387.126 382.078 387.339 381.76 387.608 381.492C387.876 381.225 388.195 381.013 388.546 380.869C388.896 380.725 389.272 380.651 389.651 380.653H458.758C459.137 380.651 459.513 380.725 459.864 380.869C460.214 381.013 460.533 381.225 460.801 381.492C461.07 381.76 461.283 382.078 461.428 382.428C461.574 382.778 461.649 383.153 461.649 383.532C461.649 383.911 461.574 384.287 461.428 384.637C461.283 384.987 461.07 385.305 460.801 385.572C460.533 385.84 460.214 386.052 459.864 386.196C459.513 386.34 459.137 386.413 458.758 386.412Z" fill="#6C63FF"/>
<path d="M88.96 558.857C88.3843 558.884 87.8145 558.733 87.3276 558.424C86.8407 558.116 86.4603 557.666 86.238 557.134C86.0157 556.602 85.9621 556.015 86.0847 555.452C86.2072 554.889 86.4999 554.377 86.9231 553.986L87.1157 553.22C87.0903 553.159 87.0648 553.098 87.0392 553.037C86.4592 551.667 85.4875 550.499 84.2459 549.68C83.0043 548.86 81.5484 548.426 80.0609 548.432C78.5734 548.437 77.1206 548.882 75.8852 549.711C74.6498 550.539 73.6867 551.714 73.117 553.088C70.8399 558.572 67.9409 564.066 67.2271 569.865C66.9127 572.428 67.0453 575.026 67.619 577.544C62.2709 565.877 59.4937 553.197 59.4758 540.364C59.4747 537.143 59.6536 533.925 60.0118 530.725C60.3078 528.101 60.7184 525.496 61.2437 522.91C64.1102 508.876 70.2647 495.723 79.2017 484.53C83.5272 482.17 87.0253 478.54 89.2247 474.131C90.0214 472.546 90.5846 470.854 90.8965 469.107C90.4086 469.171 89.0567 461.74 89.4247 461.284C88.7447 460.252 87.5276 459.739 86.785 458.732C83.0914 453.725 78.0027 454.599 75.3462 461.404C69.6712 464.268 69.6162 469.018 73.0984 473.587C75.3137 476.493 75.6182 480.426 77.5619 483.538C77.3619 483.794 77.154 484.042 76.954 484.298C73.2984 488.998 70.1122 494.046 67.4412 499.368C68.0908 493.406 67.3155 487.374 65.1792 481.77C63.0142 476.547 58.956 472.148 55.3824 467.633C51.0898 462.209 42.2875 464.576 41.5313 471.451C41.5239 471.518 41.5168 471.585 41.5098 471.651C42.0406 471.95 42.5602 472.268 43.0686 472.605C43.7073 473.031 44.2022 473.641 44.4885 474.354C44.7747 475.066 44.839 475.849 44.6728 476.599C44.5067 477.349 44.1179 478.031 43.5573 478.556C42.9968 479.082 42.2907 479.425 41.5316 479.542L41.4538 479.554C41.6429 481.467 41.9772 483.363 42.4537 485.226C37.8691 502.955 47.7669 509.413 61.8996 509.703C62.2116 509.863 62.5156 510.023 62.8276 510.175C60.1441 517.78 58.4608 525.701 57.8201 533.74C57.4574 538.483 57.4788 543.248 57.8841 547.987L57.8601 547.819C56.8361 542.549 54.0248 537.794 49.9009 534.356C43.7759 529.325 35.1224 527.472 28.5146 523.428C27.8124 522.977 26.9958 522.736 26.1613 522.734C25.3268 522.732 24.5091 522.969 23.8046 523.416C23.1002 523.864 22.5384 524.503 22.1855 525.26C21.8326 526.016 21.7034 526.857 21.813 527.684C21.8218 527.743 21.8308 527.802 21.84 527.861C22.825 528.262 23.7841 528.724 24.7117 529.245C25.2425 529.544 25.7621 529.862 26.2705 530.198C26.9091 530.625 27.404 531.235 27.6903 531.948C27.9765 532.66 28.0407 533.443 27.8746 534.193C27.7085 534.943 27.3197 535.625 26.7592 536.15C26.1987 536.675 25.4926 537.019 24.7334 537.136L24.6556 537.148C24.5997 537.156 24.5516 537.164 24.4957 537.172C26.1788 541.191 28.541 544.89 31.4789 548.107C34.3455 563.584 46.6577 565.053 59.8279 560.545H59.8359C61.2809 566.825 63.3746 572.937 66.0833 578.784H88.4008C88.4809 578.536 88.5528 578.28 88.6248 578.032C86.5591 578.161 84.4852 578.038 82.4494 577.664C84.1053 575.632 85.7611 573.584 87.417 571.552C87.4539 571.514 87.4886 571.474 87.521 571.432C88.3609 570.392 89.2088 569.361 90.0487 568.321L90.0491 568.319C90.0939 565.132 89.7273 561.951 88.96 558.857Z" fill="#F2F2F2"/>
<g opacity="0.8">
<path d="M562.204 544.779C564.738 544.779 566.835 546.834 566.835 549.317C566.835 551.8 564.738 553.854 562.204 553.854C559.67 553.854 557.573 551.8 557.573 549.317C557.573 546.748 559.67 544.779 562.204 544.779ZM562.204 552.399C563.951 552.399 565.35 551.029 565.35 549.317C565.35 547.604 563.951 546.235 562.204 546.235C560.456 546.235 559.058 547.604 559.058 549.317C559.058 551.029 560.456 552.399 562.204 552.399Z" fill="#2DCFC1"/>
<path d="M545.515 528.855C548.049 528.855 550.146 530.91 550.146 533.392C550.146 535.875 548.049 537.93 545.515 537.93C542.981 537.93 540.884 535.875 540.884 533.392C540.884 530.824 542.981 528.855 545.515 528.855ZM545.515 536.475C547.263 536.475 548.661 535.105 548.661 533.392C548.661 531.68 547.263 530.31 545.515 530.31C543.768 530.31 542.37 531.68 542.37 533.392C542.37 535.105 543.768 536.475 545.515 536.475Z" fill="#FFAA01"/>
<path d="M539.836 514.044C540.273 514.044 540.535 514.386 540.535 514.728V517.896C540.535 518.324 540.185 518.581 539.836 518.581C539.399 518.581 539.137 518.239 539.137 517.896V514.728C539.137 514.386 539.399 514.044 539.836 514.044Z" fill="#2DCFC1"/>
<path d="M539.836 508.564C540.273 508.564 540.535 508.907 540.535 509.249V512.417C540.535 512.845 540.185 513.102 539.836 513.102C539.399 513.102 539.137 512.759 539.137 512.417V509.249C539.137 508.907 539.399 508.564 539.836 508.564Z" fill="#2DCFC1"/>
<path d="M535.292 512.845H538.175C538.612 512.845 538.874 513.187 538.874 513.53C538.874 513.872 538.525 514.215 538.175 514.215H535.292C534.855 514.215 534.593 513.872 534.593 513.53C534.593 513.187 534.942 512.845 535.292 512.845Z" fill="#2DCFC1"/>
<path d="M541.408 512.845H544.292C544.728 512.845 544.991 513.187 544.991 513.53C544.991 513.872 544.641 514.215 544.292 514.215H541.408C540.971 514.215 540.709 513.872 540.709 513.53C540.709 513.187 541.059 512.845 541.408 512.845Z" fill="#2DCFC1"/>
<path d="M565.437 531.68C565.874 531.68 566.136 532.023 566.136 532.365V535.533C566.136 535.961 565.786 536.218 565.437 536.218C565 536.218 564.738 535.875 564.738 535.533V532.365C564.65 531.937 565 531.68 565.437 531.68Z" fill="#FFAA01"/>
<path d="M565.437 526.201C565.873 526.201 566.136 526.543 566.136 526.886V530.053C566.136 530.482 565.786 530.738 565.437 530.738C565 530.738 564.738 530.396 564.738 530.053V526.886C564.65 526.458 565 526.201 565.437 526.201Z" fill="#FFAA01"/>
<path d="M560.894 530.482H563.777C564.214 530.482 564.476 530.824 564.476 531.167C564.476 531.595 564.127 531.851 563.777 531.851H560.894C560.457 531.851 560.195 531.509 560.195 531.167C560.195 530.824 560.544 530.482 560.894 530.482Z" fill="#FFAA01"/>
<path d="M567.01 530.482H569.893C570.33 530.482 570.592 530.824 570.592 531.166C570.592 531.595 570.243 531.851 569.893 531.851H567.01C566.573 531.851 566.311 531.509 566.311 531.166C566.311 530.824 566.66 530.482 567.01 530.482Z" fill="#FFAA01"/>
</g>
<g opacity="0.8">
<path d="M93.6843 127.316C96.2182 127.316 98.3153 129.371 98.3153 131.854C98.3153 134.337 96.2182 136.391 93.6843 136.391C91.1503 136.391 89.0532 134.337 89.0532 131.854C89.0532 129.285 91.1503 127.316 93.6843 127.316ZM93.6843 134.936C95.4318 134.936 96.8299 133.566 96.8299 131.854C96.8299 130.141 95.4318 128.772 93.6843 128.772C91.9367 128.772 90.5387 130.141 90.5387 131.854C90.5387 133.566 91.9367 134.936 93.6843 134.936Z" fill="#2DCFC1"/>
<path d="M76.9956 111.392C79.5296 111.392 81.6266 113.447 81.6266 115.929C81.6266 118.412 79.5296 120.467 76.9956 120.467C74.4616 120.467 72.3646 118.412 72.3646 115.929C72.3646 113.361 74.4616 111.392 76.9956 111.392ZM76.9956 119.012C78.7432 119.012 80.1412 117.642 80.1412 115.929C80.1412 114.217 78.7432 112.847 76.9956 112.847C75.248 112.847 73.85 114.217 73.85 115.929C73.85 117.642 75.248 119.012 76.9956 119.012Z" fill="#FFAA01"/>
<path d="M71.3162 96.5805C71.7531 96.5805 72.0152 96.923 72.0152 97.2654V100.433C72.0152 100.861 71.6657 101.118 71.3162 101.118C70.8793 101.118 70.6171 100.776 70.6171 100.433V97.2654C70.6171 96.923 70.8793 96.5805 71.3162 96.5805Z" fill="#2DCFC1"/>
<path d="M71.3162 91.101C71.7531 91.101 72.0152 91.4435 72.0152 91.786V94.9537C72.0152 95.3818 71.6657 95.6386 71.3162 95.6386C70.8793 95.6386 70.6171 95.2962 70.6171 94.9537V91.786C70.6171 91.4435 70.8793 91.101 71.3162 91.101Z" fill="#2DCFC1"/>
<path d="M66.7723 95.3819H69.6558C70.0926 95.3819 70.3548 95.7243 70.3548 96.0668C70.3548 96.4092 70.0053 96.7517 69.6558 96.7517H66.7723C66.3354 96.7517 66.0733 96.4092 66.0733 96.0668C66.0733 95.7243 66.4228 95.3819 66.7723 95.3819Z" fill="#2DCFC1"/>
<path d="M72.8885 95.3818H75.7719C76.2088 95.3818 76.4709 95.7243 76.4709 96.0667C76.4709 96.4092 76.1214 96.7517 75.7719 96.7517H72.8885C72.4516 96.7517 72.1894 96.4092 72.1894 96.0667C72.1894 95.7243 72.5389 95.3818 72.8885 95.3818Z" fill="#2DCFC1"/>
<path d="M96.9172 114.217C97.354 114.217 97.6162 114.56 97.6162 114.902V118.07C97.6162 118.498 97.2667 118.755 96.9172 118.755C96.4803 118.755 96.2181 118.412 96.2181 118.07V114.902C96.1308 114.474 96.4803 114.217 96.9172 114.217Z" fill="#FFAA01"/>
<path d="M96.917 108.738C97.3539 108.738 97.616 109.08 97.616 109.423V112.59C97.616 113.019 97.2665 113.275 96.917 113.275C96.4801 113.275 96.218 112.933 96.218 112.59V109.423C96.1306 108.995 96.4801 108.738 96.917 108.738Z" fill="#FFAA01"/>
<path d="M92.3742 113.019H95.2577C95.6946 113.019 95.9567 113.361 95.9567 113.704C95.9567 114.132 95.6072 114.388 95.2577 114.388H92.3742C91.9374 114.388 91.6752 114.046 91.6752 113.704C91.6752 113.361 92.0247 113.019 92.3742 113.019Z" fill="#FFAA01"/>
<path d="M98.4901 113.019H101.374C101.81 113.019 102.073 113.361 102.073 113.703C102.073 114.132 101.723 114.388 101.374 114.388H98.4901C98.0532 114.388 97.7911 114.046 97.7911 113.703C97.7911 113.361 98.1406 113.019 98.4901 113.019Z" fill="#FFAA01"/>
</g>
</g>
<defs>
<clipPath id="clip0_293_79">
<rect width="618.024" height="580.356" fill="white" transform="scale(1.00111)"/>
</clipPath>
</defs>
</svg>
