<svg width="442" height="539" viewBox="0 0 442 539" fill="none" xmlns="http://www.w3.org/2000/svg">
<g clip-path="url(#clip0_290_549)">
<path d="M441.753 536.998V539H74.0593V0H76.0617V536.998H441.753Z" fill="#3F3D56"/>
<path d="M328.576 475.456C328.576 475.456 327.423 481.331 325.709 490.228C323.277 502.738 319.749 521.235 316.783 537.82H98.866C114.805 512.155 136.127 485.07 153.092 464.816L154.357 463.298C154.906 462.651 155.44 462.019 155.974 461.386C162.692 453.445 168.568 446.726 172.953 441.779C172.953 441.765 172.967 441.765 172.981 441.765C178.111 435.988 181.218 432.657 181.218 432.657L186.671 434.245L199.265 437.9L291.947 464.816L328.576 475.456Z" fill="#2F2E41"/>
<path d="M338.946 482.11C338.525 502.545 232.707 473.249 216.778 458.712C200.849 444.164 169.711 468.824 154.293 459.342C138.874 449.851 182.116 413.868 182.116 413.868C181.774 405.306 179.154 396.991 174.527 389.779C166.938 378.395 174.527 384.722 179.103 379.416C183.668 374.11 185.01 331.859 185.01 331.859L174.647 300.331C169.736 285.399 169.602 269.308 174.264 254.297C178.926 239.286 188.152 226.102 200.659 216.58L226.38 183.63L265.587 181.097L283.298 201.341L318.711 225.37L312.524 302.103C312.524 302.103 314.436 313.497 317.239 330.587C319.152 342.261 321.484 356.609 323.897 371.797C331.156 417.522 339.176 470.866 338.946 482.11Z" fill="#3F3D56"/>
<path d="M373.969 457.11L364.898 415.943L387.692 407.479L395.734 451.346C397.801 452.965 399.374 455.129 400.279 457.593C401.183 460.058 401.382 462.726 400.853 465.297C400.324 467.868 399.088 470.241 397.284 472.149C395.481 474.056 393.181 475.423 390.643 476.095C388.105 476.767 385.431 476.718 382.919 475.954C380.408 475.189 378.16 473.739 376.427 471.766C374.695 469.794 373.547 467.377 373.113 464.788C372.678 462.199 372.975 459.54 373.969 457.11Z" fill="#DFB259"/>
<path d="M281.676 208.548L282.352 208.451C288.64 207.549 295.054 208.193 301.037 210.327C307.02 212.462 312.393 216.022 316.691 220.701C327.91 232.9 342.79 251.347 351.777 271.57C367.649 307.287 373.726 323.542 374.752 337.388C375.778 351.234 372.06 348.029 378.162 355.233C384.265 362.438 386.957 351.797 386.649 366.438C386.342 381.078 380.752 380.796 386.598 384.54C392.444 388.283 396.444 385.898 395.086 395.744C393.727 405.59 395.317 408.257 395.573 411.718C395.829 415.179 403.753 437.563 403.753 437.563C403.753 437.563 378.446 443.615 368.036 453.435C368.036 453.435 367.575 428.41 362.523 426C357.472 423.59 352.677 424.641 354.293 418.257C355.908 411.873 363.369 409.231 354.318 409.206C345.267 409.181 290.883 292.397 290.883 292.397L281.676 208.548Z" fill="#3F3D56"/>
<path d="M284.467 142.375C288.119 119.875 272.839 98.6744 250.338 95.023C227.838 91.3717 206.637 106.652 202.986 129.152C199.335 151.653 214.615 172.853 237.115 176.505C259.616 180.156 280.816 164.876 284.467 142.375Z" fill="#FFB6B6"/>
<path d="M291.835 122.352C294.664 131.82 288.941 142.648 281.517 135.031C278.266 131.695 278.407 127.541 273.915 126.339C270.287 125.365 266.383 126.479 263.074 128.234C262.483 128.544 259.838 120.81 259.279 121.145C258.911 120.898 260.617 128.738 260.223 128.524C257.263 126.941 253.809 126.552 250.571 127.439C253.129 128.296 255.354 129.935 256.929 132.125C255.822 132.868 254.7 133.612 253.553 134.271C251.396 135.516 231.724 134.408 229.243 134.16C217.341 132.972 223.241 140.557 218.33 151.463C218.207 151.736 218.083 152.013 217.957 152.293L217.768 152.991C218.08 149.917 208.567 147.626 209.118 151.954C209.51 155.026 212.169 161.856 213.658 164.568C199.388 154.818 185.492 144.374 197.33 121.807C198.849 118.911 197.563 115.122 199.24 112.299C200.92 109.49 204.422 107.519 207.519 108.59C207.257 103.652 208.337 98.7345 210.646 94.3613C212.955 89.9882 216.406 86.3224 220.632 83.7537C224.857 81.1851 229.7 79.8095 234.645 79.7733C239.59 79.7371 244.453 81.0416 248.716 83.5482C252.677 85.8725 255.38 93.8104 259.614 91.9954C267.764 88.5018 271.34 91.8265 272.034 97.5367C272.386 100.439 278.132 96.9646 280.641 98.4771C283.548 100.232 284.045 103.907 284.482 107.443C281.889 107.699 279.432 108.721 277.424 110.38C280.106 110.107 282.806 110.686 285.14 112.035C285.184 112.055 285.227 112.079 285.267 112.107C286.803 117.951 286.646 119.246 291.835 122.352Z" fill="#2F2E41"/>
<path d="M441.753 193.663V204.767H375.152C374.422 204.772 373.698 204.633 373.022 204.357C372.346 204.082 371.731 203.676 371.212 203.163C370.692 202.65 370.28 202.039 369.997 201.366C369.714 200.693 369.567 199.97 369.563 199.24C369.56 198.51 369.701 197.787 369.978 197.111C370.254 196.435 370.662 195.821 371.176 195.303C371.691 194.785 372.302 194.373 372.976 194.092C373.65 193.811 374.372 193.665 375.102 193.663H441.753Z" fill="#3A49F9"/>
<path d="M62.9059 289.445C57.3275 281.519 52.6962 272.968 49.1064 263.965C48.9981 263.694 48.8108 263.461 48.5688 263.297C48.3267 263.133 48.041 263.045 47.7486 263.045C47.4562 263.045 47.1705 263.133 46.9285 263.297C46.6865 263.461 46.4992 263.694 46.391 263.966C42.8031 272.968 38.1728 281.519 32.5947 289.444C32.4087 289.699 32.3095 290.007 32.312 290.323C32.3144 290.638 32.4184 290.945 32.6084 291.196C32.7984 291.448 33.0645 291.632 33.3672 291.721C33.6699 291.81 33.9932 291.799 34.2893 291.69L45.8185 287.519V358.889H49.678V287.519L61.2115 291.691C61.5075 291.8 61.8308 291.811 62.1335 291.722C62.4362 291.633 62.7022 291.449 62.8923 291.197C63.0823 290.945 63.1862 290.639 63.1886 290.323C63.1911 290.008 63.092 289.7 62.9059 289.445Z" fill="#3F3D56"/>
<path d="M441.753 222.789V317.593H438.419V246.217L426.895 250.392C426.599 250.503 426.275 250.515 425.971 250.427C425.668 250.339 425.401 250.155 425.21 249.904C425.019 249.652 424.914 249.345 424.911 249.029C424.908 248.713 425.007 248.405 425.193 248.149C430.77 240.223 435.401 231.672 438.989 222.669C439.065 222.484 439.176 222.316 439.317 222.175C439.458 222.034 439.626 221.923 439.81 221.848C439.988 221.776 440.179 221.741 440.371 221.743C440.562 221.746 440.752 221.787 440.928 221.863C441.104 221.94 441.263 222.05 441.396 222.188C441.529 222.326 441.633 222.49 441.703 222.669C441.723 222.709 441.733 222.749 441.753 222.789Z" fill="#3F3D56"/>
<path d="M299.229 463.646C285.877 453.214 280.089 425.006 252.662 417.332C236.666 412.856 223.176 418.133 200.559 426.98C170.754 438.64 157.62 451.864 139.98 463.646L299.229 463.646Z" fill="#F2F2F2"/>
<path d="M441.753 409.614V463.649H320.637C325.603 459.794 330.068 453.327 335.004 445.377C341.342 435.165 348.47 422.509 358.462 409.814C358.512 409.744 358.572 409.684 358.622 409.614H441.753Z" fill="#F2F2F2"/>
<path d="M441.753 357.471V403.827H363.388C369.866 396.279 377.129 389.443 385.054 383.432C387.187 381.8 389.369 380.235 391.602 378.737C398.759 373.957 406.336 369.839 414.24 366.432C423.118 362.611 432.327 359.612 441.753 357.471Z" fill="#F2F2F2"/>
<path d="M441.753 328.566V386.456C435.64 386.452 429.685 384.512 424.742 380.915C419.8 377.317 416.123 372.248 414.24 366.432C413.299 363.552 412.823 360.541 412.828 357.511C412.829 349.838 415.876 342.48 421.3 337.052C426.723 331.625 434.08 328.573 441.753 328.566Z" fill="#3A49F9"/>
<path d="M120.185 243.353C120.188 244.082 120.047 244.804 119.77 245.478C119.494 246.152 119.088 246.765 118.575 247.282C118.061 247.798 117.451 248.209 116.779 248.49C116.107 248.772 115.387 248.918 114.658 248.92H0V237.817H114.618C116.09 237.814 117.504 238.395 118.547 239.433C119.591 240.471 120.18 241.881 120.185 243.353Z" fill="#3A49F9"/>
<path d="M62.5961 427.596L82.526 390.449L62.8941 376.103L43.2204 416.127C40.7914 417.123 38.6884 418.777 37.1477 420.902C35.6071 423.028 34.6899 425.541 34.4992 428.159C34.3086 430.778 34.8521 433.397 36.0687 435.724C37.2852 438.05 39.1265 439.991 41.3856 441.328C43.6447 442.665 46.2321 443.346 48.8568 443.293C51.4815 443.241 54.0395 442.457 56.2432 441.03C58.4469 439.603 60.2089 437.59 61.3312 435.217C62.4535 432.844 62.8916 430.205 62.5961 427.596Z" fill="#DFB259"/>
<path d="M227.727 222.71L227.103 222.432C221.298 219.853 214.951 218.728 208.612 219.154C202.274 219.58 196.135 221.544 190.727 224.877C176.612 233.563 157.274 247.266 143.124 264.281C118.133 294.332 99.1709 299.133 94.4167 312.177C89.6624 325.221 94.112 323.149 86.2795 328.421C78.447 333.694 78.7516 322.722 75.0641 336.894C71.3765 351.066 76.8318 352.315 70.188 354.327C63.5441 356.338 60.3439 352.956 58.9725 362.8C57.6012 372.644 55.3459 374.777 54.1573 378.038C52.9688 381.299 39.2544 400.683 39.2544 400.683C39.2544 400.683 61.9598 413.391 69.3049 425.673C69.3049 425.673 76.5581 401.718 82.0745 400.774C87.5908 399.829 91.9186 402.145 92.1013 395.562C92.2841 388.979 85.8229 384.407 94.5394 386.845C103.256 389.283 167.584 319.695 167.584 319.695L227.727 222.71Z" fill="#3F3D56"/>
<path d="M77.2351 401.524C77.7671 385.546 65.2459 372.163 49.268 371.631C33.2902 371.099 19.9064 383.62 19.3744 399.598C18.8424 415.576 31.3637 428.959 47.3415 429.491C63.3193 430.023 76.7031 417.502 77.2351 401.524Z" fill="#F2F2F2"/>
</g>
<defs>
<clipPath id="clip0_290_549">
<rect width="441.22" height="538.35" fill="white" transform="scale(1.00121)"/>
</clipPath>
</defs>
</svg>
