<svg width="37" height="46" viewBox="0 0 37 46" fill="none" xmlns="http://www.w3.org/2000/svg">
<g opacity="0.8">
<path d="M28.2659 36.7826C30.8599 36.7826 33.0068 38.8696 33.0068 41.3913C33.0068 43.913 30.8599 46 28.2659 46C25.6718 46 23.525 43.913 23.525 41.3913C23.525 38.7826 25.6718 36.7826 28.2659 36.7826ZM28.2659 44.5217C30.0549 44.5217 31.4861 43.1304 31.4861 41.3913C31.4861 39.6522 30.0549 38.2609 28.2659 38.2609C26.4769 38.2609 25.0457 39.6522 25.0457 41.3913C25.0457 43.1304 26.4769 44.5217 28.2659 44.5217Z" fill="#2DCFC1"/>
<path d="M11.1814 20.6087C13.7754 20.6087 15.9222 22.6957 15.9222 25.2174C15.9222 27.7392 13.7754 29.8261 11.1814 29.8261C8.58729 29.8261 6.44046 27.7392 6.44046 25.2174C6.44046 22.6087 8.58729 20.6087 11.1814 20.6087ZM11.1814 28.3479C12.9704 28.3479 14.4016 26.9565 14.4016 25.2174C14.4016 23.4783 12.9704 22.087 11.1814 22.087C9.39235 22.087 7.96113 23.4783 7.96113 25.2174C7.96113 26.9565 9.39235 28.3479 11.1814 28.3479Z" fill="#D79F30"/>
<path d="M5.36725 5.56532C5.8145 5.56532 6.08284 5.91314 6.08284 6.26097V9.47837C6.08284 9.91315 5.72505 10.174 5.36725 10.174C4.91999 10.174 4.65162 9.82619 4.65162 9.47837V6.26097C4.65162 5.91314 4.91999 5.56532 5.36725 5.56532Z" fill="#2DCFC1"/>
<path d="M5.36725 0C5.8145 0 6.08284 0.347829 6.08284 0.695656V3.91305C6.08284 4.34783 5.72505 4.6087 5.36725 4.6087C4.91999 4.6087 4.65162 4.26088 4.65162 3.91305V0.695656C4.65162 0.347829 4.91999 0 5.36725 0Z" fill="#2DCFC1"/>
<path d="M0.715594 4.34789H3.66745C4.1147 4.34789 4.38307 4.69572 4.38307 5.04355C4.38307 5.39137 4.02525 5.7392 3.66745 5.7392H0.715594C0.268341 5.7392 0 5.39137 0 5.04355C0 4.69572 0.357791 4.34789 0.715594 4.34789Z" fill="#2DCFC1"/>
<path d="M6.9769 4.34785H9.92876C10.376 4.34785 10.6444 4.69568 10.6444 5.04351C10.6444 5.39134 10.2866 5.73916 9.92876 5.73916H6.9769C6.52965 5.73916 6.26131 5.39134 6.26131 5.04351C6.26131 4.69568 6.6191 4.34785 6.9769 4.34785Z" fill="#2DCFC1"/>
<path d="M31.5755 23.4784C32.0227 23.4784 32.2911 23.8263 32.2911 24.1741V27.3915C32.2911 27.8263 31.9333 28.0871 31.5755 28.0871C31.1282 28.0871 30.8599 27.7393 30.8599 27.3915V24.1741C30.7704 23.7393 31.1282 23.4784 31.5755 23.4784Z" fill="#D79F30"/>
<path d="M31.5752 17.9131C32.0225 17.9131 32.2908 18.2609 32.2908 18.6088V21.8262C32.2908 22.2609 31.933 22.5218 31.5752 22.5218C31.128 22.5218 30.8596 22.174 30.8596 21.8262V18.6088C30.7702 18.174 31.128 17.9131 31.5752 17.9131Z" fill="#D79F30"/>
<path d="M26.9247 22.261H29.8766C30.3239 22.261 30.5922 22.6088 30.5922 22.9566C30.5922 23.3914 30.2344 23.6523 29.8766 23.6523H26.9247C26.4775 23.6523 26.2091 23.3045 26.2091 22.9566C26.2091 22.6088 26.5669 22.261 26.9247 22.261Z" fill="#D79F30"/>
<path d="M33.1855 22.261H36.1374C36.5847 22.261 36.853 22.6088 36.853 22.9566C36.853 23.3914 36.4952 23.6523 36.1374 23.6523H33.1855C32.7383 23.6523 32.4699 23.3044 32.4699 22.9566C32.4699 22.6088 32.8277 22.261 33.1855 22.261Z" fill="#D79F30"/>
</g>
</svg>
