<svg width="136" height="36" viewBox="0 0 136 36" fill="none" xmlns="http://www.w3.org/2000/svg">
<g clip-path="url(#clip0_156_333)">
<path d="M26.4008 8.7691C25.2854 8.18319 24.1723 7.59509 23.0569 7.01358C21.3239 6.11145 19.5916 5.21151 17.8601 4.31378C17.8034 4.28557 17.7449 4.26044 17.6851 4.23851C17.0292 3.94196 17.186 3.88089 16.4228 4.27642C14.6508 5.192 12.8694 6.09216 11.0926 7.00334C8.77278 8.19201 6.46229 9.38294 4.14013 10.5628C4.0191 10.6135 3.91788 10.6984 3.85054 10.8057C3.7832 10.9131 3.75307 11.0375 3.76434 11.1617C3.75691 16.6467 3.74013 22.131 3.71399 27.6144C3.7125 28.1024 3.69847 28.1068 3.24576 27.8723C2.75105 27.6159 2.25868 27.3594 1.77101 27.0941C1.28334 26.8288 0.758327 26.5459 0.244933 26.2849C0.174661 26.2557 0.116065 26.2063 0.0776063 26.1437C0.0391474 26.0812 0.0228166 26.0088 0.0309725 25.937L0.0831139 8.89737C0.0768803 8.82965 0.0934958 8.76192 0.130599 8.70357C0.167701 8.64531 0.223403 8.5995 0.289784 8.5727C3.08013 7.14807 5.86736 5.72124 8.6515 4.29219C11.3576 2.90688 14.0621 1.52082 16.765 0.134027C16.8513 0.0801389 16.9527 0.0515438 17.0563 0.0518608C17.1599 0.052178 17.2611 0.0813929 17.3471 0.135808C20.9998 2.04029 24.6557 3.94038 28.3146 5.83609L30.5735 7.01459C30.6081 7.16637 30.477 7.20553 30.3787 7.25579C29.3066 7.79104 28.2485 8.34832 27.1927 8.90339C26.8697 9.06949 26.641 8.92588 26.4008 8.7691Z" fill="black"/>
<path d="M16.9644 15.9939C17.5705 15.7518 18.1348 15.4238 18.706 15.12C21.3404 13.7667 23.9723 12.4105 26.6019 11.0513L33.915 7.27973C33.9548 7.32823 33.9833 7.38401 33.9988 7.44349C34.0143 7.50296 34.0165 7.56483 34.0052 7.62511L33.9946 11.0805C33.9952 11.1456 33.974 11.2093 33.934 11.2624C33.894 11.3156 33.8372 11.3556 33.7716 11.3766C33.0694 11.7305 32.3671 12.0954 31.6648 12.4538C30.0433 13.2958 28.418 14.132 26.7887 14.9623C25.5402 15.6047 24.2855 16.2471 23.0245 16.8895C21.7635 17.5319 20.501 18.178 19.2369 18.8276L17.3057 19.8175C17.1957 19.8721 17.0879 19.9575 16.9431 19.9087C16.8965 19.8954 16.8357 19.8952 16.8522 19.8205C16.9014 19.6532 16.924 19.4799 16.9193 19.3064L16.9285 16.3015C16.9123 16.1978 16.9247 16.0919 16.9644 15.9939ZM16.9161 31.031C17.3222 30.8698 17.7137 30.6777 18.0864 30.4565C22.915 27.9713 27.7428 25.4839 32.5698 22.9943L33.8596 22.3257C33.8993 22.3685 33.928 22.4193 33.9437 22.4743C33.9593 22.5291 33.9614 22.5867 33.9498 22.6424L33.9393 26.0714C33.9455 26.1459 33.926 26.2203 33.8838 26.2835C33.8415 26.3467 33.7786 26.3954 33.7045 26.4224C33.0538 26.7545 32.4076 27.0998 31.7522 27.4275C30.6965 27.9562 29.6454 28.5026 28.5967 29.0379C27.1126 29.7969 25.63 30.5573 24.1489 31.3191C22.3348 32.2521 20.5112 33.172 18.6993 34.1116C18.2124 34.3651 17.7209 34.6076 17.2293 34.8523C17.1146 34.9091 16.981 35.0142 16.8741 34.8336C16.8426 34.7054 16.832 34.5734 16.8426 34.4423L16.8524 31.2308C16.8483 31.1952 16.8518 31.1592 16.8627 31.1249C16.8737 31.0906 16.8918 31.0587 16.9161 31.031ZM16.8711 27.3996C16.8683 27.3949 16.8667 27.3896 16.8667 27.3842C16.8668 27.3788 16.8683 27.3735 16.8712 27.3689C16.9099 26.1864 16.8784 25.0037 16.8984 23.8212C16.876 23.7177 16.8912 23.6102 16.9414 23.5157C17.5616 23.2605 18.1376 22.926 18.7298 22.6222C21.6841 21.1028 24.636 19.5813 27.5855 18.0575L33.672 14.9086C33.7114 14.8866 33.7491 14.8617 33.7844 14.8342C33.8805 14.7642 33.9107 14.8346 33.9431 14.9006C33.9724 14.9842 33.9809 15.073 33.9681 15.1601L33.958 18.4572C33.9682 18.5553 33.9454 18.6538 33.8927 18.7389C33.84 18.824 33.7601 18.8912 33.6643 18.9311C32.9621 19.296 32.2598 19.6478 31.5576 20.0084C29.9501 20.8431 28.3372 21.6705 26.7189 22.4906L22.4397 24.6866C20.723 25.5606 19.0064 26.4397 17.2897 27.324C17.1539 27.3982 17.0297 27.5034 16.8711 27.3996Z" fill="black"/>
<path d="M16.9644 15.9941C17.0051 16.0818 17.0209 16.1781 17.0103 16.2734L17.0002 19.5705C16.9998 19.6782 17.0392 19.8102 16.8545 19.825L11.4625 16.7751C10.7461 16.3707 10.0346 15.9596 9.31595 15.5596C9.24599 15.5281 9.18794 15.4774 9.14968 15.4139C9.11142 15.3505 9.09477 15.2776 9.10197 15.2051L9.11238 11.8002C9.11292 11.6265 9.13653 11.5475 9.34651 11.6625C11.8866 13.1107 14.4258 14.5545 16.9644 15.9941ZM16.946 23.5159C16.9636 23.6068 16.9758 23.6986 16.9826 23.7908L16.9725 27.0879C16.9722 27.1847 17.0139 27.3078 16.8735 27.3602L11.9738 24.5865C11.0989 24.0915 10.2286 23.5921 9.35126 23.1036C9.26424 23.0648 9.19204 23.0016 9.14459 22.9228C9.09714 22.844 9.07673 22.7533 9.08616 22.6631L9.09625 19.366C9.09651 19.2804 9.05246 19.1659 9.13206 19.1178C9.21168 19.0697 9.31417 19.1711 9.39584 19.2175L16.946 23.5159ZM16.916 31.0311C16.9496 31.1397 16.9658 31.2523 16.9641 31.3654L16.9533 34.9C16.8572 34.9611 16.8061 34.8709 16.7361 34.8465L13.0496 32.7426C11.8053 32.0325 10.557 31.3268 9.30483 30.6254C9.22341 30.5875 9.15615 30.5272 9.11212 30.4524C9.06807 30.3777 9.04934 30.292 9.0584 30.207L9.06866 26.855C9.06926 26.6593 9.10218 26.5934 9.30284 26.7149C11.8413 28.1559 14.3791 29.5946 16.916 31.0311Z" fill="black"/>
<path d="M47.776 18.059C47.7793 16.9629 48.0181 16.0045 48.4923 15.1839C48.9667 14.3502 49.6138 13.7063 50.4338 13.2521C51.2677 12.7979 52.1911 12.5724 53.2039 12.5755C54.2029 12.5786 55.0694 12.7835 55.8036 13.1902C56.5377 13.597 57.0842 14.1075 57.4431 14.7219L57.4491 12.7647L59.3638 12.7705L59.331 23.4967L57.4163 23.4908L57.4224 21.4943C57.0458 22.1195 56.4823 22.6398 55.7318 23.055C54.9952 23.4573 54.1343 23.6569 53.1492 23.6539C52.1364 23.6508 51.2214 23.4131 50.4041 22.9409C49.587 22.4686 48.9438 21.8077 48.4747 20.9581C48.0056 20.1084 47.7727 19.1421 47.776 18.059ZM57.4327 18.1082C57.4352 17.2991 57.2639 16.594 56.9189 15.9927C56.5739 15.3914 56.1035 14.9332 55.5079 14.6182C54.9261 14.2901 54.2815 14.1251 53.5738 14.1229C52.8662 14.1207 52.2206 14.2754 51.6369 14.5867C51.0531 14.8981 50.5869 15.3534 50.2382 15.9526C49.8896 16.5518 49.714 17.2559 49.7115 18.0649C49.709 18.887 49.8802 19.6052 50.2252 20.2196C50.5702 20.8209 51.0336 21.2856 51.6154 21.6136C52.1972 21.9285 52.8418 22.0871 53.5495 22.0893C54.2571 22.0914 54.9027 21.9368 55.4864 21.6254C56.0841 21.301 56.5572 20.8392 56.9059 20.24C57.2546 19.6278 57.4303 18.9172 57.4327 18.1082ZM63.9513 22.0428L69.5497 22.0599L69.5452 23.5279L61.7822 23.5042L61.7867 22.0362L67.3467 14.2434L61.8523 14.2265L61.8568 12.7781L69.5365 12.8016L69.532 14.25L63.9513 22.0428ZM82.1502 12.8402L82.1174 23.5664L80.2235 23.5606L80.2284 21.9752C79.866 22.5221 79.3582 22.9511 78.7051 23.2623C78.066 23.5606 77.3579 23.7084 76.5809 23.706C75.6929 23.7033 74.8956 23.5313 74.189 23.1898C73.4825 22.8353 72.9222 22.3117 72.508 21.6188C72.1078 20.926 71.9092 20.0837 71.9122 19.092L71.9315 12.809L73.8046 12.8147L73.786 18.8629C73.7828 19.9198 74.0648 20.7362 74.6318 21.3121C75.199 21.875 75.9751 22.1579 76.9602 22.1609C77.9731 22.164 78.7718 21.8729 79.3564 21.2874C79.9409 20.702 80.2349 19.8482 80.2383 18.726L80.2564 12.8344L82.1502 12.8402ZM87.2534 9.09775L87.2091 23.582L85.3152 23.5762L85.3595 9.09195L87.2534 9.09775ZM96.6058 20.7725L96.5971 23.6107L94.7864 23.6052C93.4964 23.6012 92.4909 23.3045 91.7716 22.7151C91.052 22.1127 90.6942 21.1394 90.6983 19.7954L90.7116 15.4501L89.2964 15.4458L89.3049 12.6664L90.7201 12.6707L90.7283 10.0087L94.2872 10.0196L94.279 12.6816L96.6103 12.6887L96.6018 15.4682L94.2705 15.461L94.2571 19.8454C94.2561 20.1717 94.339 20.4068 94.5047 20.5508C94.6705 20.6949 94.9484 20.7675 95.3368 20.7687L96.6058 20.7725ZM109.544 18.0132C109.543 18.3264 109.521 18.6524 109.479 18.9916L101.424 18.9669C101.477 19.6457 101.705 20.1684 102.106 20.535C102.521 20.8886 103.028 21.0663 103.624 21.0681C104.512 21.0708 105.13 20.7204 105.48 20.0168L109.267 20.0284C109.071 20.7455 108.715 21.3903 108.2 21.9629C107.699 22.5355 107.066 22.9838 106.302 23.3077C105.538 23.6315 104.684 23.792 103.741 23.7891C102.603 23.7856 101.59 23.5542 100.704 23.0948C99.8174 22.6353 99.1262 21.9808 98.6293 21.1311C98.1324 20.2814 97.8857 19.2889 97.8892 18.1536C97.8926 17.0184 98.1381 16.0274 98.6264 15.1808C99.1285 14.334 99.8246 13.6838 100.714 13.2298C101.603 12.7758 102.623 12.5506 103.775 12.5541C104.899 12.5575 105.898 12.7824 106.77 13.2287C107.643 13.6751 108.321 14.31 108.804 15.1336C109.301 15.9572 109.548 16.9171 109.544 18.0132ZM105.904 17.1212C105.906 16.547 105.7 16.0897 105.284 15.7491C104.869 15.4086 104.349 15.2374 103.725 15.2355C103.129 15.2337 102.622 15.3952 102.205 15.7202C101.801 16.0451 101.55 16.5076 101.451 17.1076L105.904 17.1212ZM110.713 18.1929C110.717 17.0576 110.963 16.0667 111.451 15.22C111.953 14.3733 112.642 13.723 113.517 13.2689C114.407 12.8149 115.421 12.5897 116.558 12.5932C118.015 12.5977 119.228 12.9602 120.197 13.6808C121.18 14.4015 121.822 15.4149 122.123 16.7207L118.335 16.7091C118.019 15.873 117.403 15.4535 116.487 15.4507C115.834 15.4487 115.314 15.6885 114.924 16.1702C114.534 16.6387 114.337 17.3166 114.335 18.204C114.332 19.0913 114.525 19.777 114.912 20.261C115.298 20.7319 115.817 20.9684 116.47 20.9704C117.386 20.9732 118.005 20.5575 118.326 19.7233L122.114 19.7349C121.805 21.0128 121.156 22.0156 120.169 22.7433C119.181 23.471 117.966 23.8327 116.524 23.8282C115.386 23.8248 114.374 23.5933 113.487 23.1339C112.614 22.6745 111.929 22.02 111.432 21.1702C110.95 20.3206 110.71 19.3282 110.713 18.1929ZM131.178 12.6771C132.51 12.6811 133.577 13.102 134.379 13.9396C135.181 14.7641 135.581 15.9006 135.576 17.349L135.557 23.7299L132.018 23.7191L132.036 17.7884C132.038 17.0577 131.839 16.4894 131.438 16.0836C131.037 15.6779 130.497 15.474 129.817 15.4719C129.137 15.4698 128.595 15.6705 128.191 16.0737C127.788 16.477 127.585 17.044 127.583 17.7747L127.565 23.7055L124.006 23.6946L124.05 9.21035L127.609 9.22124L127.594 14.2516C127.956 13.7699 128.449 13.3864 129.075 13.1013C129.7 12.8161 130.401 12.6747 131.178 12.6771Z" fill="black"/>
</g>
<defs>
<clipPath id="clip0_156_333">
<rect width="135.889" height="35.4041" fill="white" transform="translate(0.108401) rotate(0.175325)"/>
</clipPath>
</defs>
</svg>
