<svg width="157" height="46" viewBox="0 0 157 46" fill="none" xmlns="http://www.w3.org/2000/svg">
<g clip-path="url(#clip0_167_59)">
<path fill-rule="evenodd" clip-rule="evenodd" d="M34.7338 36.1236C34.3726 36.1236 34.0169 35.9819 33.7515 35.7165L19.451 21.416L5.15043 35.7165C4.75308 36.1153 4.15566 36.2348 3.63604 36.018C3.11643 35.8041 2.77882 35.2956 2.77882 34.7343V19.4515C2.77882 19.0819 2.9247 18.729 3.1859 18.4692L18.4687 3.18637C19.012 2.64313 19.89 2.64313 20.4333 3.18637L35.7161 18.4692C35.9773 18.729 36.1232 19.0819 36.1232 19.4515V34.7343C36.1232 35.2956 35.7855 35.8041 35.2659 36.018C35.0936 36.0903 34.913 36.1236 34.7338 36.1236Z" fill="black"/>
</g>
<path d="M43.5045 13.2119H60.8221V17.0299H54.5301V36.8214H49.7965V17.0299H43.5045V13.2119ZM63.0557 27.3802C63.0557 25.4885 63.4345 23.8089 64.1921 22.3414C64.9453 20.8783 65.9712 19.7506 67.2699 18.9584C68.5642 18.1706 70.0122 17.7767 71.6138 17.7767C73.0121 17.7767 74.235 18.058 75.2825 18.6208C76.3344 19.1835 77.1742 19.8935 77.8019 20.7506V18.0818H82.5745V36.8214H77.8019V34.0812C77.1959 34.96 76.3561 35.6872 75.2825 36.263C74.2133 36.8387 72.9796 37.1266 71.5814 37.1266C70.0014 37.1266 68.5642 36.7197 67.2699 35.9058C65.9712 35.0963 64.9453 33.9535 64.1921 32.4774C63.4345 30.9969 63.0557 29.2979 63.0557 27.3802ZM77.8019 27.4516C77.8019 26.3001 77.5768 25.3132 77.1266 24.4907C76.6764 23.6682 76.0682 23.0362 75.302 22.5947C74.5358 22.1574 73.7133 21.9388 72.8346 21.9388C71.9515 21.9388 71.1398 22.1531 70.3996 22.5817C69.655 23.0102 69.0512 23.6357 68.588 24.4582C68.1248 25.2807 67.8932 26.2547 67.8932 27.3802C67.8932 28.51 68.1248 29.497 68.588 30.3411C69.0512 31.1896 69.6594 31.8389 70.4126 32.2891C71.1701 32.7393 71.9775 32.9644 72.8346 32.9644C73.7133 32.9644 74.5358 32.7436 75.302 32.3021C76.0682 31.8649 76.6764 31.235 77.1266 30.4125C77.5768 29.5901 77.8019 28.6031 77.8019 27.4516ZM85.9899 27.4191C85.9899 25.5448 86.3795 23.8803 87.1587 22.4258C87.9379 20.9713 88.992 19.8393 90.3209 19.0299C91.6542 18.216 93.1195 17.8091 94.7169 17.8091C96.0501 17.8091 97.2297 18.0624 98.2557 18.5688C99.2816 19.0796 100.111 19.729 100.743 20.5168V18.0818H105.509V45.7496H100.743V34.2501C100.111 35.0639 99.2643 35.7413 98.2037 36.2824C97.1432 36.8235 95.9484 37.0941 94.6195 37.0941C93.0394 37.0941 91.5893 36.6829 90.269 35.8604C88.953 35.0336 87.9098 33.8886 87.1392 32.4254C86.373 30.958 85.9899 29.2892 85.9899 27.4191ZM100.743 27.4516C100.743 26.3001 100.505 25.3067 100.028 24.4712C99.5565 23.6401 98.9418 23.0102 98.1843 22.5817C97.431 22.1531 96.6259 21.9388 95.7688 21.9388C94.9333 21.9388 94.139 22.1531 93.3857 22.5817C92.6282 23.0102 92.0135 23.6357 91.5417 24.4582C91.0655 25.2807 90.8274 26.2677 90.8274 27.4191C90.8274 28.5663 91.0655 29.5641 91.5417 30.4125C92.0135 31.2567 92.6282 31.893 93.3857 32.3216C94.139 32.7501 94.9333 32.9644 95.7688 32.9644C96.6259 32.9644 97.431 32.7501 98.1843 32.3216C98.9418 31.893 99.5565 31.261 100.028 30.4255C100.505 29.5944 100.743 28.6031 100.743 27.4516ZM131.592 18.0818H136.124L130.644 36.8214H125.54L122.118 23.731L118.703 36.8214H113.56L108.048 18.0818H112.853L116.164 32.354L119.755 18.0818H124.761L128.281 32.3216L131.592 18.0818ZM137.481 27.3802C137.481 25.4885 137.858 23.8089 138.611 22.3414C139.369 20.8783 140.395 19.7506 141.689 18.9584C142.988 18.1706 144.438 17.7767 146.04 17.7767C147.438 17.7767 148.661 18.058 149.708 18.6208C150.756 19.1835 151.596 19.8935 152.228 20.7506V18.0818H157V36.8214H152.228V34.0812C151.617 34.96 150.777 35.6872 149.708 36.263C148.639 36.8387 147.405 37.1266 146.007 37.1266C144.427 37.1266 142.988 36.7197 141.689 35.9058C140.395 35.0963 139.369 33.9535 138.611 32.4774C137.858 30.9969 137.481 29.2979 137.481 27.3802ZM152.228 27.4516C152.228 26.3001 152.003 25.3132 151.552 24.4907C151.102 23.6682 150.494 23.0362 149.728 22.5947C148.957 22.1574 148.133 21.9388 147.254 21.9388C146.375 21.9388 145.563 22.1531 144.819 22.5817C144.074 23.0102 143.47 23.6357 143.007 24.4582C142.548 25.2807 142.319 26.2547 142.319 27.3802C142.319 28.51 142.548 29.497 143.007 30.3411C143.47 31.1896 144.081 31.8389 144.838 32.2891C145.592 32.7393 146.397 32.9644 147.254 32.9644C148.133 32.9644 148.957 32.7436 149.728 32.3021C150.494 31.8649 151.102 31.235 151.552 30.4125C152.003 29.5901 152.228 28.6031 152.228 27.4516Z" fill="black"/>
<defs>
<clipPath id="clip0_167_59">
<rect width="38.9594" height="38.9614" fill="white"/>
</clipPath>
</defs>
</svg>
