<svg width="35" height="35" viewBox="0 0 35 35" fill="none" xmlns="http://www.w3.org/2000/svg">
<path fill-rule="evenodd" clip-rule="evenodd" d="M32.7339 34.1235C32.3727 34.1235 32.017 33.9818 31.7517 33.7164L17.4512 19.4159L3.15066 33.7164C2.75331 34.1152 2.15589 34.2347 1.63628 34.0179C1.11666 33.804 0.779053 33.2955 0.779053 32.7342V17.4514C0.779053 17.0818 0.924934 16.7289 1.18613 16.4691L16.4689 1.18636C17.0121 0.643122 17.8902 0.643122 18.4334 1.18636L33.7162 16.4691C33.9774 16.7289 34.1233 17.0818 34.1233 17.4514V32.7342C34.1233 33.2955 33.7857 33.804 33.2661 34.0179C33.0938 34.0902 32.9132 34.1235 32.7339 34.1235Z" fill="black"/>
</svg>
